<?xml version="1.0" standalone="no"?>
<!DOCTYPE svg PUBLIC "-//W3C//DTD SVG 20010904//EN"
 "http://www.w3.org/TR/2001/REC-SVG-20010904/DTD/svg10.dtd">
<svg version="1.0" xmlns="http://www.w3.org/2000/svg"
 width="4096.000000pt" height="1589.000000pt" viewBox="0 0 4096.000000 1589.000000"
 preserveAspectRatio="xMidYMid meet">
<metadata>
Created by potrace 1.16, written by Peter Selinger 2001-2019
</metadata>
<g transform="translate(0.000000,1589.000000) scale(0.100000,-0.100000)"
fill="#000000" stroke="none">
<path d="M34850 8055 l0 -7835 1410 0 1410 0 0 7835 0 7835 -1410 0 -1410 0 0
-7835z"/>
<path d="M0 14185 l0 -1485 1485 0 1485 0 0 1485 0 1485 -1485 0 -1485 0 0
-1485z"/>
<path d="M16693 9568 c3 -4044 7 -5540 15 -5643 25 -302 34 -396 53 -560 53
-444 123 -786 229 -1105 219 -665 582 -1159 1105 -1503 148 -97 454 -249 636
-316 385 -141 852 -236 1404 -286 315 -28 488 -36 953 -42 l462 -6 0 1316 0
1317 -167 0 c-269 0 -580 22 -813 56 -555 82 -836 318 -963 809 -37 145 -53
261 -79 580 -7 96 -12 795 -15 2223 l-4 2082 1020 0 1021 0 0 1205 0 1205
-1020 0 -1020 0 0 2085 0 2085 -1410 0 -1410 0 3 -5502z"/>
<path d="M10495 11119 c-675 -29 -1301 -204 -1841 -515 -492 -283 -845 -592
-1220 -1068 l-109 -139 -3 751 -2 752 -1395 0 -1395 0 0 -5340 0 -5340 1405 0
1405 0 0 2794 c0 2410 2 2820 15 2982 56 687 214 1219 480 1619 301 452 786
807 1317 965 406 121 930 130 1407 24 497 -111 930 -380 1202 -746 319 -430
496 -982 539 -1678 6 -105 10 -1216 10 -3057 l0 -2893 1425 0 1425 0 0 3093
c0 3078 -3 3385 -35 3727 -103 1089 -439 1971 -1017 2667 -124 150 -370 393
-511 507 -616 493 -1348 775 -2262 871 -120 13 -645 39 -665 33 -3 -1 -81 -4
-175 -9z"/>
<path d="M27670 11109 c-588 -18 -1147 -126 -1715 -331 -375 -135 -833 -371
-1199 -616 -786 -526 -1408 -1234 -1836 -2092 -87 -174 -186 -398 -250 -565
-470 -1235 -448 -2813 58 -4081 409 -1025 1084 -1873 1963 -2462 187 -126 389
-241 624 -357 726 -357 1407 -539 2228 -596 227 -15 876 -7 1102 15 1067 103
2008 426 2825 969 174 116 407 290 573 429 146 123 677 649 677 672 0 11
-1928 1487 -2005 1535 -19 12 -33 0 -170 -136 -568 -562 -1361 -929 -2215
-1024 -146 -16 -565 -16 -735 0 -459 43 -827 140 -1165 307 -266 132 -496 300
-710 520 -299 307 -501 654 -654 1119 -25 77 -46 143 -46 147 0 5 1886 8 4191
8 l4191 0 -5 708 c-5 740 -8 808 -58 1167 -84 617 -274 1219 -554 1763 -578
1121 -1415 1927 -2515 2423 -785 353 -1621 507 -2600 478z m620 -2423 c746
-93 1344 -377 1805 -858 341 -355 551 -773 591 -1179 l6 -66 -1224 -6 c-672
-4 -1947 -7 -2831 -7 l-1609 0 7 63 c18 177 52 311 122 482 185 457 560 877
1032 1159 403 240 857 380 1381 426 143 12 579 4 720 -14z"/>
<path d="M80 5560 l0 -5340 1410 0 1410 0 0 5340 0 5340 -1410 0 -1410 0 0
-5340z"/>
<path d="M39740 2236 c-411 -86 -711 -369 -822 -776 -20 -74 -23 -107 -22
-255 1 -155 3 -178 28 -260 53 -176 130 -314 247 -439 198 -212 463 -327 755
-327 174 -1 299 29 459 107 215 105 400 300 492 518 66 156 78 221 77 416 0
161 -2 182 -27 265 -57 188 -142 332 -271 460 -135 135 -281 219 -467 271
-116 32 -343 42 -449 20z m418 -205 c271 -79 473 -272 561 -537 39 -116 58
-301 41 -407 -66 -430 -408 -721 -845 -720 -385 1 -683 212 -806 571 -33 95
-33 101 -34 267 0 147 3 180 23 248 88 305 319 522 627 591 102 23 334 16 433
-13z"/>
<path d="M39510 1220 l0 -600 115 0 115 0 0 240 0 241 78 -3 77 -3 144 -238
144 -237 124 0 c68 0 122 3 120 8 -3 4 -69 113 -147 242 -78 129 -144 240
-147 247 -3 8 3 13 18 13 32 1 103 34 148 69 101 80 136 280 76 424 -22 54
-81 115 -138 144 -89 44 -159 53 -454 53 l-273 0 0 -600z m570 392 c28 -11 53
-30 68 -52 20 -30 23 -44 20 -102 -3 -58 -8 -71 -33 -98 -44 -46 -107 -60
-262 -60 l-133 0 0 165 0 165 148 -1 c114 0 157 -4 192 -17z"/>
</g>
</svg>
