<?xml version="1.0" standalone="no"?>
<!DOCTYPE svg PUBLIC "-//W3C//DTD SVG 20010904//EN"
 "http://www.w3.org/TR/2001/REC-SVG-20010904/DTD/svg10.dtd">
<svg version="1.0" xmlns="http://www.w3.org/2000/svg"
 width="1280.000000pt" height="844.000000pt" viewBox="0 0 1280.000000 844.000000"
 preserveAspectRatio="xMidYMid meet">

<g transform="translate(0.000000,844.000000) scale(0.100000,-0.100000)"
fill="#000000" stroke="none">
<path d="M7915 8430 c-1477 -63 -2943 -422 -4261 -1043 -261 -123 -487 -244
-836 -446 l-28 -16 0 -119 c0 -91 3 -117 13 -113 6 3 120 57 253 120 732 350
1455 610 2269 817 908 231 1772 351 2645 367 2118 38 3606 -609 4043 -1757
203 -533 177 -1088 -76 -1613 -120 -251 -257 -445 -467 -661 -153 -157 -289
-270 -467 -389 l-123 -82 0 -347 0 -347 107 45 c558 233 1080 693 1413 1244
282 466 427 1040 391 1553 -46 673 -275 1177 -737 1627 -677 659 -1775 1055
-3189 1149 -217 15 -729 21 -950 11z"/>
<path d="M9770 4934 c0 -1714 -4 -1603 71 -1761 86 -181 283 -308 523 -338
l56 -7 0 1821 0 1821 -325 0 -325 0 0 -1536z"/>
<path d="M11067 6456 c-137 -38 -219 -195 -173 -332 77 -233 415 -233 492 0
19 57 15 146 -10 193 -59 114 -189 173 -309 139z m144 -41 c24 -9 59 -30 78
-48 146 -139 53 -377 -148 -378 -203 -1 -297 238 -148 379 61 59 138 75 218
47z"/>
<path d="M11030 6210 l0 -160 30 0 30 0 0 65 c0 45 4 65 13 65 21 0 32 -13 66
-72 28 -50 37 -58 62 -58 37 0 36 11 -1 72 -16 26 -30 51 -30 55 0 3 11 16 25
29 19 17 25 33 25 64 0 23 -4 50 -10 60 -14 26 -63 40 -141 40 l-69 0 0 -160z
m148 98 c7 -7 12 -24 12 -40 0 -32 -24 -48 -69 -48 -30 0 -31 1 -31 50 l0 50
38 0 c21 0 43 -5 50 -12z"/>
<path d="M1870 6065 l0 -315 325 0 325 0 0 315 0 315 -325 0 -325 0 0 -315z"/>
<path d="M5740 4788 c0 -848 4 -1336 10 -1378 32 -203 141 -383 295 -484 144
-96 291 -126 623 -126 l222 0 0 269 0 269 -172 4 c-154 4 -178 6 -215 26 -50
26 -87 72 -102 127 -7 27 -11 255 -11 703 l0 662 250 0 250 0 0 265 0 265
-250 0 -250 0 0 355 0 355 -325 0 -325 0 0 -1312z"/>
<path d="M1169 5799 c-383 -380 -627 -707 -828 -1105 -229 -456 -335 -899
-334 -1399 1 -697 195 -1287 581 -1770 104 -130 308 -332 447 -444 749 -601
1806 -946 3225 -1053 235 -17 1198 -18 1450 0 910 63 1638 178 2495 393 826
207 1539 462 2173 775 l252 125 0 479 c0 264 -3 480 -6 480 -3 0 -65 -33 -137
-74 -1064 -594 -2730 -1098 -4187 -1265 -460 -53 -779 -71 -1336 -78 -800 -9
-1323 30 -1899 143 -1129 220 -1899 679 -2284 1359 -132 234 -221 510 -262
815 -20 143 -17 488 5 645 83 602 351 1222 733 1688 48 60 98 121 111 136 22
27 22 34 20 197 l-3 168 -216 -215z"/>
<path d="M8044 5415 c-234 -41 -435 -140 -597 -294 -107 -102 -167 -184 -237
-326 -97 -195 -137 -370 -147 -630 -22 -613 193 -1062 607 -1270 183 -91 324
-124 567 -132 430 -14 709 83 1011 355 l54 47 -202 192 -203 193 -51 -46
c-158 -143 -301 -195 -536 -196 -146 -1 -220 15 -323 69 -159 84 -276 283
-277 471 l0 42 835 0 835 0 0 138 c0 280 -36 513 -106 697 -138 357 -378 584
-714 673 -80 21 -122 25 -265 28 -115 2 -196 -2 -251 -11z m358 -546 c104 -30
192 -107 248 -219 37 -73 59 -151 69 -239 l7 -71 -508 0 -508 0 0 38 c0 62 27
168 59 236 108 225 371 331 633 255z"/>
<path d="M1872 4343 l3 -1048 23 -70 c59 -174 157 -292 303 -364 83 -41 189
-72 282 -84 l47 -7 0 1310 0 1310 -330 0 -331 0 3 -1047z"/>
<path d="M3120 4096 l0 -1296 325 0 325 0 0 1031 0 1030 333 -3 332 -3 47 -28
c31 -18 57 -44 75 -75 l28 -47 3 -952 2 -953 326 0 325 0 -3 993 -3 992 -28
90 c-43 136 -91 219 -177 306 -88 88 -191 146 -321 181 -82 21 -98 22 -836 25
l-753 4 0 -1295z"/>
</g>
</svg>
