<?xml version="1.0" standalone="no"?>
<!DOCTYPE svg PUBLIC "-//W3C//DTD SVG 20010904//EN"
 "http://www.w3.org/TR/2001/REC-SVG-20010904/DTD/svg10.dtd">
<svg version="1.0" xmlns="http://www.w3.org/2000/svg"
 width="3000.000000pt" height="1217.000000pt" viewBox="0 0 3000.000000 1217.000000"
 preserveAspectRatio="xMidYMid meet">
<metadata>
Created by potrace 1.16, written by Peter Selinger 2001-2019
</metadata>
<g transform="translate(0.000000,1217.000000) scale(0.100000,-0.100000)"
fill="#000000" stroke="none">
<path d="M25430 6165 l0 -5745 1025 0 1025 0 0 5745 0 5745 -1025 0 -1025 0 0
-5745z"/>
<path d="M12253 7228 c3 -2946 7 -4103 15 -4183 78 -757 159 -1100 350 -1482
216 -433 585 -766 1058 -953 445 -177 1094 -270 1892 -270 l212 0 0 964 0 963
-177 7 c-486 18 -733 60 -903 154 -89 49 -205 167 -252 257 -39 74 -79 199
-98 305 -41 229 -43 283 -47 1918 l-4 1572 740 0 741 0 0 890 0 890 -740 0
-740 0 0 1520 0 1520 -1025 0 -1025 0 3 -4072z"/>
<path d="M7520 8390 c-165 -20 -186 -23 -330 -57 -513 -118 -977 -372 -1354
-741 -106 -105 -238 -254 -326 -370 l-55 -72 -3 555 -2 555 -1015 0 -1015 0 0
-3920 0 -3920 1025 0 1024 0 4 2132 c3 2102 4 2135 24 2288 80 585 256 985
562 1278 370 352 820 520 1338 498 708 -29 1189 -324 1454 -890 110 -236 178
-511 209 -851 6 -70 10 -899 10 -2283 l0 -2172 1038 2 1037 3 0 2355 c0 2181
-1 2370 -18 2560 -73 835 -309 1490 -722 2005 -444 554 -1046 889 -1830 1019
-288 48 -777 60 -1055 26z"/>
<path d="M20065 8404 c-350 -36 -529 -68 -767 -133 -150 -41 -192 -55 -363
-121 -1239 -476 -2167 -1534 -2490 -2838 -82 -332 -109 -572 -109 -972 -1
-327 6 -416 50 -697 90 -580 315 -1153 647 -1648 51 -75 211 -288 251 -334
395 -448 752 -723 1257 -971 474 -232 878 -344 1489 -412 151 -17 667 -17 830
0 656 67 1122 192 1615 432 508 248 965 594 1348 1023 69 77 76 87 55 87 -7 0
-49 28 -93 63 -44 35 -129 101 -190 147 -172 132 -656 503 -807 619 -75 59
-190 148 -257 198 l-120 93 -53 -56 c-288 -306 -664 -541 -1099 -684 -282 -94
-515 -130 -832 -130 -377 0 -676 51 -971 166 -474 186 -861 571 -1061 1057
-29 71 -105 297 -105 313 0 2 1371 4 3046 4 l3046 0 -5 518 c-6 603 -22 793
-93 1132 -121 573 -362 1114 -711 1592 -251 344 -585 666 -928 895 -525 351
-1102 561 -1755 639 -129 15 -725 28 -825 18z m665 -1789 c344 -54 658 -169
905 -332 429 -284 724 -720 764 -1130 l7 -73 -2053 0 c-1636 0 -2053 3 -2053
13 0 50 34 218 60 297 142 434 512 825 989 1044 136 62 313 119 465 150 106
22 160 30 326 50 83 10 490 -3 590 -19z"/>
<path d="M190 4340 l0 -3920 1030 0 1030 0 0 3920 0 3920 -1030 0 -1030 0 0
-3920z"/>
<path d="M28900 1857 c-151 -47 -260 -118 -364 -238 -260 -299 -256 -725 10
-1017 235 -260 596 -325 908 -165 71 37 110 66 177 133 103 102 157 190 204
335 30 92 35 119 35 205 0 119 -23 217 -80 335 -91 191 -236 323 -440 400 -68
26 -89 29 -225 32 -134 3 -158 1 -225 -20z m390 -147 c108 -37 166 -72 250
-155 66 -65 112 -138 148 -237 23 -64 26 -88 27 -198 0 -106 -4 -136 -24 -195
-54 -161 -169 -294 -316 -365 -96 -46 -159 -60 -270 -60 -107 0 -172 14 -260
55 -331 155 -455 568 -265 885 86 145 237 251 415 290 66 15 222 4 295 -20z"/>
<path d="M28810 1120 l0 -440 85 0 85 0 0 180 0 180 53 0 53 0 31 -52 c17 -29
65 -110 108 -180 l77 -128 89 0 c49 0 89 2 89 5 0 3 -9 18 -19 33 -22 31 -201
322 -201 327 0 2 22 11 49 20 122 40 179 178 135 326 -12 39 -28 66 -60 96
-67 65 -108 73 -361 73 l-213 0 0 -440z m379 289 c90 -19 132 -108 81 -172
-28 -36 -69 -46 -188 -49 l-102 -3 0 118 0 117 80 0 c43 0 102 -5 129 -11z"/>
</g>
</svg>
