<?xml version="1.0" standalone="no"?>
<!DOCTYPE svg PUBLIC "-//W3C//DTD SVG 20010904//EN"
 "http://www.w3.org/TR/2001/REC-SVG-20010904/DTD/svg10.dtd">
<svg version="1.0" xmlns="http://www.w3.org/2000/svg"
 width="1200.000000pt" height="750.000000pt" viewBox="0 0 1200.000000 750.000000"
 preserveAspectRatio="xMidYMid meet">

<g transform="translate(0.000000,750.000000) scale(0.100000,-0.100000)"
fill="#000000" stroke="none">
<path d="M0 3750 l0 -3750 6000 0 6000 0 0 3750 0 3750 -6000 0 -6000 0 0
-3750z m6426 3631 c569 -74 1089 -271 1564 -592 581 -393 1052 -979 1308
-1624 396 -1001 321 -2135 -202 -3059 -172 -302 -336 -517 -591 -771 -108
-109 -242 -230 -310 -283 -539 -417 -1106 -653 -1780 -743 -244 -33 -636 -33
-880 0 -675 90 -1241 326 -1780 743 -146 113 -452 415 -563 555 -437 553 -683
1135 -769 1821 -25 195 -24 642 1 842 62 500 222 969 473 1390 365 611 887
1087 1526 1395 415 199 794 300 1307 349 120 11 541 -3 696 -23z"/>
<path d="M5655 7349 c-342 -32 -721 -126 -1030 -253 -49 -21 -170 -79 -269
-129 -776 -394 -1393 -1092 -1691 -1912 -89 -247 -154 -512 -191 -780 -26
-185 -26 -675 0 -860 78 -566 259 -1053 561 -1510 262 -397 586 -720 990 -990
452 -301 947 -486 1505 -562 193 -26 697 -26 890 0 558 76 1053 261 1505 562
404 270 728 593 990 990 174 263 292 502 394 798 256 742 256 1542 0 2284
-264 766 -781 1413 -1474 1848 -106 66 -382 207 -510 260 -316 132 -689 222
-1050 255 -129 12 -490 11 -620 -1z m380 -419 l40 -75 3 73 3 72 34 0 c34 0
35 -1 35 -38 0 -22 -3 -87 -7 -145 l-6 -107 -32 0 c-29 0 -34 5 -66 71 l-34
72 -5 -69 -5 -69 -32 -3 -33 -3 0 144 c0 79 3 147 7 151 4 4 19 6 33 4 20 -2
33 -18 65 -78z m-303 14 c3 -27 7 -70 7 -95 1 -57 19 -84 50 -74 21 6 22 11
20 113 l-2 107 34 0 34 0 6 -90 c10 -142 -10 -190 -85 -202 -48 -8 -91 12
-109 50 -8 18 -18 78 -22 134 -7 101 -7 101 16 106 39 7 44 3 51 -49z m525 46
c16 0 16 -1 -3 -222 l-6 -68 -34 0 c-40 0 -40 0 -24 174 12 119 15 130 37 122
8 -3 22 -6 30 -6z m97 -9 c23 -9 25 -16 31 -100 4 -50 10 -91 14 -91 3 0 21
38 39 85 33 84 34 85 68 85 19 0 34 -4 34 -8 0 -5 -26 -67 -58 -138 -60 -132
-69 -142 -116 -130 -21 5 -24 16 -39 130 -25 185 -25 186 27 167z m-844 -23
c0 -7 3 -23 6 -35 4 -13 2 -23 -4 -23 -6 0 -22 -4 -35 -9 l-24 -9 18 -94 c10
-51 18 -98 18 -105 1 -12 -56 -29 -66 -19 -3 3 -13 49 -22 103 l-16 98 -34 1
c-30 0 -36 4 -43 29 -4 16 -4 33 0 37 7 7 142 35 180 37 12 0 22 -5 22 -11z
m1174 -34 c72 -18 77 -22 69 -53 -5 -21 -9 -22 -51 -16 -24 4 -51 9 -58 12
-10 3 -14 -3 -14 -20 0 -22 6 -26 48 -34 39 -7 46 -12 44 -28 -6 -42 -8 -43
-57 -32 -38 9 -48 8 -56 -4 -17 -28 -8 -38 46 -50 45 -10 55 -16 55 -33 0 -44
-10 -47 -101 -28 -62 14 -85 23 -87 36 -3 14 38 209 53 254 6 16 34 15 109 -4z
m-1414 -22 c0 -9 13 -71 29 -137 31 -127 30 -138 -18 -133 -21 3 -26 13 -52
118 -39 160 -39 167 19 169 15 1 22 -5 22 -17z m1623 -34 c44 -14 75 -31 84
-45 20 -30 8 -80 -28 -114 -28 -26 -28 -27 -18 -89 5 -34 8 -65 5 -67 -3 -3
-20 0 -39 6 -33 11 -35 15 -43 74 -10 68 -22 79 -36 32 -22 -72 -24 -75 -58
-63 -37 12 -37 3 16 176 19 61 38 112 41 112 4 0 38 -10 76 -22z m-1734 -120
l81 -123 -32 -13 c-29 -13 -34 -12 -49 7 -15 18 -20 19 -53 9 -28 -9 -36 -16
-34 -32 2 -14 -6 -25 -25 -34 -16 -8 -31 -12 -33 -9 -2 2 -7 70 -11 150 l-6
147 24 9 c47 19 55 13 138 -111z m-218 -58 c16 -69 29 -132 29 -141 0 -13 -37
-39 -55 -39 -2 0 -23 28 -46 63 -51 75 -48 71 -53 66 -3 -2 2 -38 10 -79 7
-41 10 -77 6 -81 -4 -4 -19 -10 -33 -14 -25 -6 -31 1 -102 117 -42 68 -73 126
-69 130 4 4 18 9 32 13 22 5 28 0 53 -44 27 -48 57 -82 45 -49 -4 8 -9 39 -13
69 -6 53 -6 56 20 67 14 7 27 12 29 12 2 0 20 -25 40 -56 21 -31 39 -54 41
-52 2 2 -3 30 -11 63 -12 55 -12 61 3 73 36 26 46 11 74 -118z m2199 94 c44
-18 60 -39 60 -77 0 -33 -7 -37 -41 -25 -17 6 -29 17 -29 28 0 21 -29 35 -44
20 -7 -7 3 -23 32 -53 34 -34 42 -50 42 -79 0 -52 -40 -98 -86 -98 -68 0 -114
39 -114 98 0 37 5 42 38 33 20 -5 28 -15 32 -37 4 -21 12 -30 28 -32 40 -6 37
25 -7 73 -51 56 -55 93 -12 136 34 33 46 35 101 13z m173 -76 c15 -12 12 -24
-41 -138 -32 -69 -65 -126 -73 -128 -8 -1 -23 4 -34 12 -19 13 -18 18 39 140
60 129 72 141 109 114z m-2682 -128 c27 -52 49 -105 49 -117 0 -44 -27 -80
-73 -98 -74 -28 -110 0 -182 143 -34 70 -35 75 -18 88 31 24 47 11 93 -76 48
-90 78 -112 99 -71 9 16 3 35 -34 105 -25 46 -45 89 -45 94 0 10 40 32 53 28
5 -1 31 -44 58 -96z m2820 60 c44 -23 82 -47 85 -55 3 -7 0 -23 -6 -35 -11
-21 -21 -22 -62 -5 -13 5 -27 -13 -68 -89 l-52 -96 -29 15 c-16 9 -29 18 -29
22 0 3 20 43 45 89 43 78 54 114 37 114 -5 0 -16 6 -26 13 -18 13 -18 15 -1
40 9 15 19 27 21 27 3 0 41 -18 85 -40z m159 -90 c27 -19 29 -24 23 -71 l-6
-51 42 28 c40 26 45 27 69 13 14 -7 27 -18 29 -24 1 -5 -31 -30 -73 -54 -57
-33 -84 -56 -107 -92 -35 -53 -45 -57 -76 -31 l-21 17 35 55 c23 35 35 66 35
90 0 47 12 140 17 140 3 0 18 -9 33 -20z m-3270 -64 l0 -64 80 -49 c44 -26 78
-52 77 -56 -1 -4 -16 -17 -33 -27 l-31 -20 -49 35 c-48 35 -49 35 -53 13 -1
-13 5 -38 15 -56 18 -34 18 -34 -5 -53 -13 -11 -26 -19 -30 -19 -5 0 -150 218
-159 239 -1 4 11 15 28 24 l30 18 21 -35 c12 -20 25 -36 30 -36 5 0 9 26 9 58
0 52 3 59 28 74 15 10 30 18 35 18 4 0 7 -29 7 -64z m1990 -101 c845 -119
1588 -658 1960 -1420 287 -589 343 -1233 163 -1860 -168 -583 -544 -1093
-1060 -1438 -309 -207 -664 -341 -1063 -403 -175 -28 -568 -25 -749 4 -809
132 -1470 595 -1877 1314 -144 253 -260 611 -300 927 -20 152 -20 480 0 632
92 714 460 1339 1043 1772 374 277 826 445 1323 491 96 9 450 -3 560 -19z
m1678 -85 c118 -72 86 -251 -51 -279 -107 -23 -206 82 -178 187 10 36 60 94
91 105 35 13 106 6 138 -13z m-3954 -4 c18 -8 46 -31 62 -52 23 -30 29 -47 29
-90 0 -59 -20 -94 -75 -131 -66 -45 -167 -18 -209 57 -71 127 58 272 193 216z
m-231 -327 c53 -50 97 -96 97 -103 0 -7 -8 -20 -18 -29 -17 -15 -23 -15 -91 4
-40 11 -75 19 -77 16 -2 -2 16 -23 41 -46 25 -23 45 -47 45 -54 0 -16 -20 -37
-36 -37 -7 0 -58 43 -114 97 l-101 96 23 24 23 23 74 -20 c40 -12 75 -19 77
-17 2 2 -19 25 -46 52 -47 46 -49 50 -33 67 9 10 21 18 27 18 6 0 55 -41 109
-91z m4631 -113 c38 -16 51 -42 41 -86 -8 -38 -16 -38 -37 0 -17 30 -62 55
-79 44 -19 -11 -7 -49 31 -101 l41 -53 -26 -10 c-31 -12 -65 -13 -65 -2 0 4
-16 24 -36 45 -55 56 -114 48 -114 -15 0 -38 23 -81 73 -142 l41 -49 -50 7
c-112 17 -182 150 -118 225 34 41 59 54 114 61 36 4 46 9 48 26 2 12 11 29 20
37 15 13 27 17 75 26 4 0 23 -5 41 -13z m-4839 -35 c22 -10 57 -37 78 -59 31
-35 37 -49 37 -85 -1 -91 -88 -134 -179 -87 -46 23 -97 81 -104 119 -11 56 48
131 102 131 14 0 44 -9 66 -19z m-108 -228 c62 -42 113 -82 113 -87 0 -6 -8
-21 -18 -33 l-17 -23 -114 80 c-63 44 -117 82 -119 85 -6 5 26 55 35 55 4 0
58 -35 120 -77z m5192 31 l32 -7 -27 -28 c-15 -16 -33 -29 -40 -29 -7 0 -39
-18 -72 -41 -41 -29 -74 -43 -106 -46 -25 -3 -46 -2 -46 3 1 13 192 152 211
153 9 1 31 -2 48 -5z m-5330 -43 c24 -19 24 -19 7 -46 -15 -23 -16 -29 -5 -36
8 -5 49 -31 91 -57 43 -26 77 -51 78 -57 0 -5 -8 -20 -18 -33 l-17 -22 -87 55
c-48 30 -91 55 -96 55 -5 0 -14 -11 -20 -25 -14 -30 -22 -31 -53 -6 l-24 19
19 34 c43 73 87 138 94 138 4 0 18 -9 31 -19z m5228 -173 c-2 -7 4 -30 15 -51
15 -31 22 -36 33 -27 8 7 17 20 20 31 5 14 16 19 41 19 19 0 34 -3 34 -6 0 -4
-16 -32 -35 -64 l-35 -58 35 -72 c49 -97 116 -264 155 -385 40 -123 38 -120
60 -100 12 11 26 14 44 9 37 -9 40 -20 10 -43 -32 -25 -79 -34 -118 -23 -26 7
-32 19 -76 147 -58 172 -76 217 -140 350 -28 58 -48 110 -45 115 4 6 0 10 -7
10 -16 0 -68 92 -68 120 0 22 25 39 58 40 15 0 22 -5 19 -12z m-5264 -68 c75
-16 142 -32 147 -35 5 -3 1 -19 -8 -35 -14 -25 -22 -29 -43 -25 -20 5 -28 1
-37 -20 -15 -33 -15 -52 1 -58 14 -4 -1 -58 -18 -63 -5 -2 -57 41 -115 96
l-104 99 17 35 c9 20 18 36 19 36 2 0 65 -13 141 -30z m-97 -183 c130 -110
127 -106 105 -143 l-18 -30 -141 20 c-77 12 -143 24 -147 27 -11 12 18 59 36
59 10 0 50 -7 90 -15 67 -14 97 -13 73 3 -47 31 -134 105 -134 113 0 15 20 49
28 49 5 0 53 -38 108 -83z m-45 -195 c82 -40 104 -124 50 -184 -27 -30 -34
-33 -88 -33 -97 1 -183 65 -183 137 0 31 35 87 63 98 33 15 108 6 158 -18z
m5513 -185 c15 -11 16 -17 5 -40 -22 -48 -68 -23 -49 27 11 29 18 32 44 13z
m-5630 -42 c71 -20 133 -38 137 -41 4 -2 3 -18 -2 -34 -10 -26 -18 -31 -85
-46 -41 -9 -72 -19 -69 -23 4 -3 32 -13 63 -22 51 -14 57 -18 54 -40 -2 -13
-7 -28 -12 -32 -6 -7 -262 57 -278 69 -2 1 -1 16 3 33 6 29 11 31 85 47 44 10
77 20 75 24 -2 4 -29 13 -60 20 -31 7 -58 17 -61 21 -6 10 6 59 15 59 3 0 64
-16 135 -35z m6060 -131 c26 -10 19 -35 -25 -86 -22 -26 -37 -53 -33 -59 3 -6
22 -9 43 -7 21 3 45 -1 58 -9 l22 -14 -22 -37 c-11 -20 -22 -38 -23 -40 -3 -5
-47 19 -54 28 -3 4 -20 15 -39 24 -33 17 -34 17 -60 -8 -27 -26 -81 -35 -108
-18 -10 6 -33 104 -33 143 0 29 59 31 102 3 21 -13 42 -24 47 -24 16 0 40 41
34 57 -13 33 46 64 91 47z m-336 -50 c15 -10 22 -24 20 -37 -4 -28 -20 -28
-33 1 -14 31 -25 28 -25 -8 0 -39 -19 -38 -46 4 l-21 33 21 10 c32 16 59 15
84 -3z m-5783 -59 c71 -14 131 -25 133 -25 2 0 2 -15 0 -32 -3 -32 -6 -34 -83
-59 -86 -28 -86 -30 15 -47 43 -7 45 -9 42 -37 -2 -17 -6 -32 -8 -34 -3 -3
-46 3 -97 13 -186 35 -187 36 -187 59 0 36 11 44 89 67 81 25 79 33 -6 45 -49
6 -53 9 -53 34 0 27 7 41 19 41 3 0 64 -11 136 -25z m6169 -231 c33 -22 36
-28 22 -36 -9 -5 -40 -11 -68 -12 -29 -2 -78 -7 -108 -11 -41 -5 -65 -3 -93 8
-44 19 -48 37 -9 37 20 1 135 21 212 39 3 0 23 -11 44 -25z m-6171 -16 l97
-11 0 -32 c0 -17 -2 -34 -5 -36 -5 -5 -257 26 -279 34 -8 3 -11 17 -8 37 5 32
5 32 51 26 25 -4 90 -12 144 -18z m5886 -211 l21 -21 0 37 c0 43 28 77 63 77
30 0 108 -40 121 -62 15 -25 -1 -48 -54 -75 -72 -37 -166 -29 -217 19 -31 29
-29 63 4 96 l27 27 7 -38 c3 -21 16 -48 28 -60z m-5826 19 c15 -12 16 -18 7
-35 -7 -15 -8 -27 0 -40 19 -36 12 -96 -14 -120 -34 -32 -89 -31 -124 2 -22
20 -32 23 -55 16 -51 -14 -97 16 -97 65 0 70 59 98 114 55 30 -23 62 -19 52 7
-4 9 -4 25 0 36 4 15 12 17 39 12 19 -3 35 -1 39 5 9 14 17 13 39 -3z m5825
-353 c17 -30 53 -38 90 -19 28 14 30 14 53 -10 l23 -24 -32 -12 c-35 -14 -32
-2 -57 -188 -9 -63 -30 -173 -47 -245 -43 -181 -43 -185 -25 -185 15 0 29 -25
24 -45 -1 -5 -15 -10 -31 -10 -28 0 -32 -5 -53 -64 l-23 -65 20 -21 c29 -31
40 -78 29 -119 -12 -42 -30 -50 -74 -32 l-34 15 -69 -132 c-64 -124 -67 -133
-50 -145 14 -10 27 -62 15 -62 -1 0 -17 4 -34 9 l-32 9 -78 -116 c-43 -64 -79
-122 -81 -128 -3 -13 120 -94 143 -94 13 0 42 -49 33 -54 -2 -1 -20 -9 -40
-19 l-38 -17 -15 29 c-8 16 -40 47 -71 68 -31 21 -66 54 -77 73 l-20 35 86
130 c47 72 93 139 104 150 10 12 18 25 18 30 1 6 31 70 68 144 63 125 66 135
51 152 -21 24 -18 30 43 78 32 25 50 46 47 55 -6 15 10 83 31 131 28 66 98
390 110 510 4 33 8 72 11 86 4 22 -2 30 -45 57 -68 42 -77 74 -30 116 l34 30
6 -39 c3 -22 11 -50 17 -62z m-5807 -53 c3 -47 3 -88 0 -92 -8 -9 -274 -27
-282 -19 -4 3 -9 46 -13 94 l-6 88 32 -3 c32 -3 33 -4 36 -56 3 -48 5 -53 25
-50 19 3 21 8 18 56 -2 52 -2 52 27 52 28 0 30 -3 36 -50 6 -45 9 -50 31 -50
24 0 25 3 25 61 l0 60 33 -3 32 -3 6 -85z m6089 30 c0 -4 -9 -15 -20 -25 -16
-15 -22 -15 -35 -5 -20 17 -19 26 7 52 20 20 22 20 35 3 7 -11 13 -22 13 -25z
m-6110 -165 c42 -22 58 -83 33 -132 -25 -51 -72 -73 -155 -73 -61 0 -71 3
-100 29 -28 25 -33 36 -33 76 0 39 5 51 28 71 36 31 55 30 63 -1 4 -18 1 -32
-12 -46 -22 -24 -10 -52 26 -57 46 -7 110 9 121 29 13 24 -3 49 -32 49 -14 0
-19 7 -19 28 0 16 3 32 7 35 11 11 42 8 73 -8z m66 -232 c6 -24 0 -33 -52 -80
-63 -56 -60 -62 23 -42 49 13 63 5 63 -37 0 -18 -13 -23 -112 -44 -180 -37
-175 -37 -180 -1 -4 29 1 36 54 79 32 26 58 50 58 53 0 4 -28 1 -62 -7 -68
-14 -76 -11 -80 26 -3 23 2 26 112 51 152 36 168 36 176 2z m5623 -192 c8 -14
7 -22 -4 -31 -7 -6 -11 -18 -9 -25 6 -16 -40 -50 -56 -40 -13 8 -13 42 1 50 6
4 8 14 5 22 -6 16 19 42 41 43 7 0 17 -9 22 -19z m-5550 -98 c11 -39 21 -77
21 -85 0 -10 -42 -27 -127 -52 -71 -21 -132 -39 -137 -40 -13 -2 -60 148 -53
168 4 9 17 16 30 16 20 0 27 -8 37 -45 14 -50 21 -58 43 -49 14 5 14 11 1 52
-12 43 -12 48 3 60 28 21 39 14 54 -35 16 -51 26 -59 52 -40 17 11 17 15 2 57
-9 24 -13 50 -11 56 5 13 47 24 57 15 4 -4 16 -38 28 -78z m65 -193 c15 -39
26 -76 23 -83 -3 -7 -20 -18 -38 -24 -19 -6 -76 -27 -128 -47 -51 -20 -95 -36
-96 -36 -5 0 -28 61 -24 64 2 2 48 20 102 41 53 20 97 39 97 41 0 3 -7 21 -15
41 -8 19 -15 41 -15 48 0 13 49 36 61 29 3 -2 18 -35 33 -74z m75 -178 c17
-38 31 -74 31 -81 0 -11 -109 -66 -214 -109 -37 -14 -40 -14 -52 3 -8 10 -14
24 -14 31 0 7 43 33 95 58 l95 45 -21 46 c-11 26 -19 48 -17 49 12 10 45 25
54 26 6 0 25 -31 43 -68z m101 -199 c22 -42 37 -80 33 -84 -23 -21 -235 -130
-245 -126 -7 2 -30 37 -52 76 -36 69 -37 73 -20 86 29 22 38 18 64 -30 14 -25
30 -45 38 -45 22 0 24 27 3 61 -27 44 -26 53 4 67 23 11 26 9 45 -28 23 -45
32 -52 54 -44 22 8 20 28 -6 73 -19 33 -20 41 -9 55 27 32 48 18 91 -61z
m5348 -71 c2 -13 -3 -25 -12 -28 -9 -3 -16 -15 -16 -25 0 -24 -48 -38 -61 -18
-13 20 -11 29 6 35 8 4 15 15 15 25 0 19 34 40 55 35 6 -1 11 -12 13 -24z
m-5265 -72 c35 -28 51 -78 37 -116 -25 -66 -109 -124 -180 -124 -80 0 -130 93
-84 158 14 21 17 21 37 7 16 -11 22 -26 22 -53 0 -32 3 -37 25 -40 28 -3 85
31 106 63 19 28 2 50 -38 50 -30 0 -33 3 -36 32 -2 23 1 32 15 36 40 10 72 6
96 -13z m100 -145 c17 -24 17 -26 -3 -66 -12 -22 -19 -43 -17 -46 3 -2 24 1
48 7 41 11 43 11 68 -21 14 -19 52 -63 83 -99 32 -36 58 -68 58 -71 0 -4 -48
-49 -107 -100 l-106 -93 -59 63 c-32 35 -58 69 -58 75 0 6 10 17 22 25 20 12
24 10 57 -28 29 -34 38 -40 49 -30 17 18 16 24 -20 65 l-32 36 25 19 24 19 30
-35 c33 -38 46 -43 65 -20 10 12 6 22 -24 56 -28 33 -33 45 -24 56 17 21 9 22
-62 9 l-65 -12 -36 -67 -35 -67 -24 25 c-23 25 -23 26 -7 60 9 20 17 38 17 42
0 3 -18 3 -41 -1 -34 -5 -43 -3 -59 16 -11 13 -19 26 -20 30 0 4 26 12 58 18
31 6 65 14 75 16 10 3 31 35 49 75 17 38 36 69 42 69 6 0 19 -12 29 -25z
m4739 -163 c54 -41 99 -81 102 -90 12 -45 16 -72 11 -72 -14 0 -65 31 -72 44
-4 8 -32 32 -60 55 -29 23 -59 51 -67 64 -18 28 -32 81 -20 76 5 -2 53 -37
106 -77z m-4332 -262 c44 -31 74 -101 65 -149 -19 -102 -128 -159 -222 -115
-112 54 -111 223 1 276 51 24 113 19 156 -12z m4010 -2 c56 -29 96 -99 86
-152 -27 -142 -205 -184 -284 -66 -20 29 -23 45 -20 91 5 66 31 105 86 131 50
23 79 22 132 -4z m-2249 -674 c62 -32 93 -108 87 -212 -7 -121 -69 -218 -174
-270 -41 -21 -139 -43 -149 -34 -12 13 -2 21 44 37 63 21 135 84 167 147 14
28 23 52 21 54 -2 2 -25 -5 -50 -16 -144 -64 -266 105 -173 238 53 77 144 99
227 56z m489 11 c0 -8 -12 -18 -27 -21 -52 -13 -120 -53 -153 -90 -27 -31 -60
-90 -60 -108 0 -2 24 4 53 14 83 29 148 8 186 -61 46 -82 14 -191 -72 -239
-31 -18 -50 -21 -96 -18 -110 8 -166 78 -166 208 0 90 23 146 86 215 46 50 98
81 169 101 61 17 80 17 80 -1z m415 1 c0 -6 -26 -20 -57 -32 -31 -12 -71 -32
-89 -45 -36 -25 -89 -104 -89 -131 0 -18 2 -18 33 -2 41 22 103 22 144 1 104
-54 96 -233 -12 -294 -89 -51 -198 -19 -244 72 -65 125 -6 304 127 387 67 41
187 69 187 44z m-1355 -230 c0 -250 0 -248 53 -261 59 -15 22 -25 -93 -25 -66
0 -120 4 -120 8 0 5 18 14 40 21 l40 12 -2 207 -3 207 -38 3 c-54 5 -42 22 29
43 104 29 94 51 94 -215z"/>
<path d="M6855 6789 c-8 -25 6 -42 31 -37 23 4 31 37 12 49 -22 14 -36 10 -43
-12z"/>
<path d="M5065 6734 c8 -46 10 -48 30 -40 14 5 14 9 0 35 -24 48 -39 50 -30 5z"/>
<path d="M5849 5737 c-104 -101 -173 -146 -277 -184 -271 -100 -557 -53 -779
126 l-62 50 -57 -102 c-32 -56 -126 -225 -211 -375 -149 -266 -153 -274 -153
-332 l0 -59 93 -3 92 -3 2 -960 c2 -583 7 -997 13 -1055 19 -173 89 -381 176
-524 63 -103 156 -216 261 -317 218 -209 487 -340 798 -389 102 -16 334 -14
440 5 178 31 369 104 519 197 282 174 538 491 635 783 52 159 51 138 51 1240
l0 1025 95 0 95 0 0 62 0 63 -212 371 -212 372 -60 -49 c-82 -66 -182 -115
-301 -145 -89 -23 -114 -25 -230 -21 -101 4 -147 11 -207 30 -137 44 -289 142
-375 242 l-38 44 -96 -92z m167 -36 c253 -241 630 -297 957 -143 45 22 99 53
121 71 21 17 42 31 47 31 9 0 75 -111 272 -455 98 -172 137 -250 137 -273 l0
-32 -95 0 -94 0 -4 -1067 -3 -1068 -22 -78 c-86 -297 -286 -581 -552 -781 -96
-72 -355 -197 -475 -229 -256 -68 -544 -58 -805 29 -364 121 -704 430 -856
774 -83 190 -95 256 -105 575 -4 154 -8 632 -8 1063 l-1 782 -90 0 -90 0 0 31
c0 21 61 142 193 385 105 194 196 354 200 354 5 0 30 -18 55 -40 59 -53 185
-114 287 -141 59 -15 112 -21 200 -22 151 0 262 25 384 88 88 45 215 144 245
190 9 14 19 25 23 25 3 0 39 -31 79 -69z"/>
<path d="M5899 5637 c-112 -101 -271 -183 -413 -214 -95 -20 -299 -20 -394 1
-91 20 -200 65 -271 111 -29 19 -56 35 -60 35 -4 0 -15 -15 -24 -32 -9 -18
-86 -157 -171 -308 -84 -151 -152 -278 -149 -282 2 -5 31 -8 63 -8 48 0 64 -5
87 -24 l28 -24 1 -1009 c0 -1076 0 -1077 51 -1233 30 -94 121 -280 136 -280 7
1 64 71 127 158 63 86 193 263 290 393 96 131 266 360 377 510 111 151 414
563 675 916 592 802 872 1189 876 1208 5 23 -16 18 -67 -15 -208 -133 -492
-163 -745 -79 -114 38 -190 78 -292 155 l-81 60 -44 -39z m216 -128 c41 -22
77 -44 79 -48 3 -4 -68 -86 -157 -182 -89 -96 -168 -183 -176 -193 -13 -15
-10 -22 29 -61 24 -25 48 -45 52 -45 4 0 132 88 284 197 l276 196 64 -2 c124
-4 256 21 388 74 37 15 69 25 71 23 7 -8 -153 -217 -175 -228 -14 -7 -205 -93
-425 -191 -219 -99 -403 -183 -408 -188 -10 -10 19 -111 32 -111 4 0 74 15
157 34 197 45 365 79 370 74 2 -2 -35 -57 -82 -121 l-86 -117 -173 0 c-195 0
-185 5 -185 -85 l0 -40 106 -22 c58 -12 108 -24 110 -26 3 -2 -14 -32 -37 -65
l-42 -60 -83 29 c-45 16 -85 29 -87 29 -8 0 -67 -111 -67 -124 0 -6 25 -29 55
-50 30 -22 55 -44 55 -49 0 -5 -14 -28 -32 -51 -17 -22 -33 -43 -35 -45 -2 -3
-30 21 -63 54 l-59 58 -50 -38 c-28 -22 -51 -43 -51 -47 0 -5 23 -45 50 -89
28 -44 50 -85 50 -90 0 -6 -19 -38 -42 -72 l-42 -61 -20 45 c-12 25 -38 85
-60 132 -21 48 -44 87 -50 87 -7 0 -36 -7 -64 -15 -36 -11 -52 -21 -52 -33 0
-19 31 -206 55 -327 8 -44 15 -91 15 -103 0 -23 -144 -232 -159 -232 -8 0 -21
344 -21 551 l0 116 -37 7 c-91 15 -89 16 -107 -86 -9 -51 -21 -109 -26 -128
-4 -19 -48 -246 -96 -505 l-87 -470 -141 -192 c-78 -106 -145 -191 -150 -190
-6 2 -32 56 -59 120 l-49 116 85 223 c47 123 164 431 262 686 97 255 175 465
173 466 -14 13 -91 57 -93 54 -8 -9 -283 -431 -360 -553 -48 -77 -94 -147
-102 -155 -11 -12 -13 15 -13 168 l0 182 82 93 c45 50 131 144 190 208 59 65
108 123 108 130 -1 23 -68 92 -83 86 -7 -3 -75 -48 -150 -101 -75 -53 -139
-96 -142 -96 -3 0 -5 42 -5 93 l0 93 118 53 c64 30 121 57 126 61 12 11 -29
124 -46 128 -8 1 -52 -6 -98 -17 -47 -11 -88 -17 -92 -15 -14 9 -9 134 5 135
14 2 60 4 133 7 l52 2 7 66 c4 44 3 69 -4 73 -6 4 -54 15 -106 26 l-95 18 0
46 c0 80 -42 128 -119 138 -40 6 -52 25 -19 31 8 2 95 -31 193 -73 98 -42 183
-74 189 -72 7 3 24 28 40 58 l29 52 -29 24 c-16 13 -91 68 -166 121 -76 53
-138 102 -138 109 0 11 22 53 58 112 14 24 15 23 172 -134 178 -178 155 -168
239 -97 l35 30 -92 147 c-51 81 -91 150 -88 152 6 6 148 -37 163 -49 7 -5 26
-47 44 -91 48 -127 39 -118 110 -97 34 10 63 20 64 22 2 2 -3 37 -11 78 -8 41
-14 76 -14 78 0 2 24 2 53 0 l52 -3 3 -72 3 -73 64 0 c72 0 64 -10 90 111 l17
77 75 31 c41 18 77 30 79 28 3 -2 -16 -61 -41 -129 -25 -69 -45 -131 -45 -137
0 -11 102 -61 124 -61 6 0 70 93 141 205 72 113 131 205 133 205 2 0 36 -18
77 -41z"/>
<path d="M5775 5026 c-16 -11 -19 -28 -19 -107 l-1 -94 -35 -11 -35 -12 28 -7
c37 -10 75 8 87 41 12 30 13 204 2 204 -5 0 -17 -6 -27 -14z"/>
<path d="M5070 4940 l0 -80 318 2 317 3 3 78 c3 83 -1 89 -44 61 -18 -13 -22
-20 -13 -30 6 -7 9 -25 7 -41 l-3 -28 -265 0 -265 0 -3 28 c-2 16 1 34 7 41 9
10 5 17 -13 30 -42 27 -46 21 -46 -64z"/>
<path d="M5517 4833 c-15 -14 -7 -43 12 -43 26 0 36 17 21 35 -14 16 -23 19
-33 8z"/>
<path d="M5186 4749 c-34 -26 -33 -46 4 -96 16 -22 27 -43 23 -47 -13 -13
-188 -6 -209 9 -19 13 -22 12 -33 -11 -6 -14 -11 -29 -11 -34 0 -12 337 -14
344 -2 2 4 -15 35 -40 67 -24 33 -44 63 -44 67 0 23 25 0 75 -67 l56 -76 72 3
72 3 3 83 c2 45 -1 82 -6 82 -27 0 -45 -30 -46 -76 -1 -46 -3 -49 -29 -52 -35
-4 -57 14 -110 93 -57 85 -73 92 -121 54z"/>
<path d="M5397 4763 c-4 -3 -7 -15 -7 -25 0 -23 38 -25 47 -2 8 21 -24 43 -40
27z"/>
<path d="M5884 4755 c-4 -9 -2 -21 4 -27 15 -15 44 -1 40 19 -4 23 -36 29 -44
8z"/>
<path d="M5905 4686 c-17 -12 -19 -24 -16 -85 3 -76 -7 -101 -41 -101 -10 0
-16 -4 -13 -10 10 -17 61 -11 79 9 14 15 16 35 14 110 -3 90 -3 92 -23 77z"/>
<path d="M5564 4666 c-14 -21 -13 -21 108 -26 100 -4 123 -8 123 -20 0 -12
-22 -15 -128 -18 -115 -2 -128 -4 -125 -20 3 -15 21 -17 151 -20 l147 -3 0 43
c0 63 -10 71 -79 75 -34 2 -88 4 -122 6 -52 3 -62 0 -75 -17z"/>
<path d="M5033 4519 c-15 -15 -5 -39 17 -39 22 0 32 24 17 39 -6 6 -14 11 -17
11 -3 0 -11 -5 -17 -11z"/>
<path d="M5100 4520 c-18 -11 -4 -42 17 -38 10 2 19 10 21 19 4 19 -19 31 -38
19z"/>
<path d="M5191 4429 c-17 -14 -21 -23 -13 -28 7 -4 12 -42 14 -96 l3 -90 40
-3 c22 -2 45 -9 50 -16 22 -28 55 -38 85 -26 16 7 31 18 34 26 4 11 36 14 155
14 82 0 152 4 155 9 4 5 1 22 -4 37 -8 21 -14 24 -22 16 -16 -16 -53 -15 -68
3 -27 32 17 74 47 44 20 -20 30 -1 27 51 -2 48 -16 80 -35 80 -5 0 -6 -13 -3
-29 6 -26 3 -30 -30 -41 -46 -15 -70 -50 -62 -90 5 -29 5 -30 -34 -30 l-40 0
0 95 c0 52 -3 95 -7 95 -5 -1 -19 -10 -33 -22 -16 -14 -21 -22 -12 -25 8 -3
12 -28 12 -74 0 -60 -2 -69 -18 -69 -10 0 -33 16 -52 35 l-34 35 -36 -35 c-20
-19 -46 -35 -58 -35 -21 0 -22 4 -22 95 0 52 -3 95 -7 95 -5 -1 -19 -10 -32
-21z m172 -205 c-6 -16 -29 -19 -38 -4 -4 6 -1 17 5 26 15 18 42 0 33 -22z"/>
<path d="M6860 5097 c-168 -227 -590 -799 -939 -1272 -349 -473 -671 -909
-716 -970 -76 -102 -138 -187 -323 -437 -40 -54 -72 -101 -72 -106 0 -11 101
-134 164 -201 318 -334 867 -492 1304 -376 324 86 621 297 813 578 74 107 151
267 181 373 l23 79 3 1071 c3 1240 -11 1106 118 1112 l74 4 -24 42 c-13 22
-83 146 -156 273 -72 128 -135 235 -139 237 -4 3 -144 -180 -311 -407z m326
295 c11 -20 48 -84 81 -142 33 -58 79 -140 102 -183 l42 -77 -26 0 c-35 0 -86
-23 -110 -50 -20 -22 -20 -40 -25 -1094 -5 -1065 -6 -1071 -27 -1141 -32 -103
-68 -188 -107 -259 -182 -326 -494 -572 -846 -667 -76 -21 -107 -24 -295 -24
-206 0 -212 1 -329 32 -204 56 -365 132 -516 243 -72 53 -205 184 -246 242
-32 44 -41 24 110 228 190 256 345 467 548 741 51 70 141 192 199 270 58 79
261 353 449 609 189 256 389 526 444 600 178 241 378 513 461 627 33 45 62 82
65 83 3 0 14 -17 26 -38z"/>
<path d="M6611 4045 c-96 -58 -178 -105 -182 -105 -4 0 -15 23 -24 50 -25 76
-32 71 -55 -47 -12 -61 -13 -62 -74 -99 -174 -107 -406 -265 -416 -285 -7 -12
-15 -50 -18 -84 -4 -57 -2 -64 19 -79 16 -11 44 -16 90 -16 l67 0 41 -47 c23
-27 41 -51 41 -55 0 -3 -20 -14 -45 -24 -38 -14 -59 -15 -133 -8 -122 13 -233
11 -260 -4 -42 -24 -13 -33 101 -32 62 1 138 -3 170 -9 42 -7 90 -7 175 2 64
7 194 11 287 9 94 -1 211 2 260 8 124 14 145 14 358 5 195 -8 215 -4 161 32
-20 13 -48 17 -110 17 -46 0 -84 3 -84 6 0 4 16 25 36 48 43 50 40 72 -11 72
-19 0 -35 3 -35 8 1 4 16 25 35 47 31 36 39 40 81 40 47 1 78 23 72 53 -4 18
-79 44 -93 32 -5 -5 -37 -45 -70 -89 -33 -44 -63 -80 -67 -81 -4 0 -14 24 -23
53 l-17 52 46 195 c26 107 49 203 52 213 9 30 -20 20 -112 -38 -49 -30 -91
-55 -95 -55 -3 0 -10 14 -15 32 -15 51 -31 44 -55 -23 -21 -56 -28 -65 -83
-100 -33 -21 -62 -37 -63 -35 -2 2 6 34 18 72 30 97 90 209 155 288 30 37 54
71 52 76 -2 5 -81 -38 -177 -95z m119 36 c0 -6 -5 -13 -11 -17 -33 -20 -109
-161 -143 -265 -21 -63 -46 -121 -57 -131 -29 -24 -23 -31 9 -10 42 29 136 84
147 87 6 1 18 6 28 10 26 11 32 1 57 -103 12 -51 24 -91 27 -89 2 3 -8 51 -22
107 -17 66 -23 106 -16 113 6 6 15 -1 25 -19 l15 -29 -5 35 c-5 35 -4 36 81
89 47 29 88 51 91 48 3 -3 -2 -31 -10 -63 -8 -33 -27 -113 -41 -178 -14 -66
-27 -122 -29 -124 -3 -2 -11 9 -20 25 -22 41 -20 27 14 -72 33 -97 32 -118 -2
-113 -17 2 -27 15 -40 53 -14 39 -17 43 -12 15 3 -19 8 -43 10 -52 4 -12 -5
-21 -31 -32 -45 -19 -210 -33 -219 -18 -3 5 -15 8 -27 5 -12 -4 -25 0 -30 8
-6 10 -9 10 -9 2 0 -9 -19 -13 -62 -13 -51 0 -69 5 -92 23 -31 25 -96 26 -96
1 0 -19 -44 -18 -60 1 -7 8 -19 15 -27 15 -8 0 -29 10 -46 22 -18 12 -26 15
-19 8 16 -19 15 -30 -3 -30 -8 0 -38 21 -67 47 -44 38 -54 44 -56 29 -2 -10 1
-23 7 -29 6 -6 11 -17 11 -24 0 -11 -16 -13 -67 -11 l-68 3 -3 35 c-5 45 14
106 39 131 19 19 20 19 57 -8 36 -27 37 -27 15 -2 -30 34 -29 40 15 68 171
113 341 221 346 221 3 0 6 -8 7 -17 1 -12 3 -10 8 6 9 33 29 38 41 9 9 -20 9
-19 4 10 -4 24 -2 32 9 32 8 0 21 -15 29 -32 8 -18 12 -26 10 -18 -19 74 -24
68 130 162 146 89 158 95 158 79z"/>
<path d="M6460 3614 c0 -8 5 -12 10 -9 6 3 10 10 10 16 0 5 -4 9 -10 9 -5 0
-10 -7 -10 -16z"/>
<path d="M6822 3200 c-54 -8 -70 -15 -59 -26 8 -8 348 -21 395 -16 19 3 31 9
29 16 -9 29 -235 45 -365 26z"/>
<path d="M6050 3180 c-12 -8 -13 -11 -1 -19 24 -16 158 -34 215 -29 31 3 56 1
56 -4 0 -13 85 -9 175 8 67 14 99 15 171 7 79 -9 119 -4 102 12 -15 15 -120
35 -183 35 -61 0 -168 -17 -226 -35 -13 -4 -19 -1 -19 8 0 23 -258 38 -290 17z"/>
<path d="M5915 3154 c-60 -14 -183 -32 -205 -31 -50 4 -29 -18 30 -31 56 -13
69 -12 156 8 53 13 107 20 124 16 22 -4 30 -2 30 8 0 8 -6 16 -14 19 -23 9
-100 16 -121 11z"/>
<path d="M6877 3143 c-15 -15 -3 -20 86 -33 104 -16 140 -17 180 -7 51 14 31
34 -40 40 -89 9 -218 9 -226 0z"/>
<path d="M6670 3104 c-41 -8 -121 -14 -178 -15 -87 0 -102 -2 -92 -14 6 -8 45
-21 85 -30 61 -14 83 -15 129 -5 31 6 104 10 163 9 127 -3 176 5 171 29 -2 12
-21 21 -58 29 -73 15 -129 14 -220 -3z"/>
<path d="M5993 3077 c-2 -4 13 -15 34 -24 77 -34 303 -16 283 22 -6 12 -309
14 -317 2z"/>
<path d="M6243 3018 c-72 -23 -20 -38 131 -38 112 0 146 6 146 25 0 24 -210
34 -277 13z"/>
<path d="M6340 2940 c0 -14 35 -30 64 -30 35 0 56 10 56 26 0 10 -15 14 -60
14 -33 0 -60 -4 -60 -10z"/>
<path d="M5886 2535 c-18 -13 -19 -27 -18 -122 2 -100 1 -106 -12 -77 -17 39
-31 44 -119 44 l-72 0 30 25 c17 14 42 28 58 31 24 6 27 11 27 45 0 25 -5 39
-12 39 -18 0 -232 -169 -236 -186 -3 -11 24 -14 135 -17 l138 -3 -152 -2 -153
-2 0 46 c0 40 -2 45 -17 39 -10 -3 -30 -9 -45 -12 -38 -8 -68 -39 -68 -72 0
-30 27 -61 53 -61 24 0 22 -37 -2 -50 -11 -5 -30 -10 -42 -10 -18 0 -19 -2 -9
-15 7 -9 29 -15 51 -15 46 0 79 27 79 65 l0 25 215 0 215 0 0 150 c0 158 -3
166 -44 135z"/>
<path d="M5960 2391 c0 -96 4 -162 10 -166 5 -3 20 1 31 9 20 14 22 23 22 151
0 121 -3 138 -19 150 -41 31 -44 23 -44 -144z"/>
<path d="M6660 2400 l0 -151 138 3 c129 3 137 4 137 23 0 12 -11 25 -28 33
-30 15 -30 15 -47 79 -10 38 -15 43 -52 54 -39 10 -44 9 -60 -11 -27 -33 -23
-53 7 -48 31 6 51 -9 59 -44 6 -28 6 -28 -49 -28 l-55 0 0 88 c0 57 4 92 13
101 10 10 7 16 -13 31 -48 37 -50 32 -50 -130z"/>
<path d="M6186 2531 c-3 -4 -17 -6 -32 -3 -22 4 -25 2 -22 -19 3 -21 9 -24 41
-24 45 0 66 17 47 40 -14 17 -26 19 -34 6z"/>
<path d="M5063 2483 c-7 -3 -13 -13 -13 -24 0 -20 6 -22 55 -19 41 2 53 16 33
37 -13 12 -20 14 -31 5 -7 -6 -18 -8 -23 -3 -5 5 -15 6 -21 4z"/>
<path d="M6318 2411 c-32 -32 -58 -63 -58 -68 0 -6 15 -15 33 -21 32 -10 32
-10 -15 -11 l-48 -1 0 75 c0 41 -4 75 -10 75 -5 0 -21 -5 -35 -12 -21 -9 -25
-17 -20 -37 4 -21 0 -29 -24 -43 -21 -11 -33 -29 -41 -57 -6 -23 -8 -46 -5
-51 4 -6 60 -10 129 -10 98 0 126 3 136 15 11 14 14 14 24 0 9 -13 33 -15 136
-13 l125 3 -1 49 c-1 54 -26 86 -69 86 -30 0 -75 -37 -75 -61 0 -16 -7 -19
-42 -18 l-43 2 38 10 c43 12 45 20 16 46 -30 28 -35 33 -66 69 l-28 32 -57
-59z m67 -40 c7 -12 -12 -24 -25 -16 -11 7 -4 25 10 25 5 0 11 -4 15 -9z m195
-51 c0 -5 -4 -10 -10 -10 -5 0 -10 5 -10 10 0 6 5 10 10 10 6 0 10 -4 10 -10z"/>
<path d="M5000 2340 l0 -90 170 0 170 0 0 90 c0 97 -6 105 -48 70 -19 -16 -21
-23 -13 -39 6 -11 11 -29 11 -40 0 -18 -6 -21 -45 -21 l-45 0 0 60 c0 64 -6
70 -45 44 -22 -14 -24 -21 -18 -60 l6 -44 -43 0 -43 0 6 43 c6 40 4 45 -22 60
-16 9 -32 17 -35 17 -3 0 -6 -40 -6 -90z"/>
<path d="M5249 2214 c-18 -22 -1 -34 44 -31 35 2 42 6 42 22 0 16 -7 20 -37
21 -21 1 -43 -5 -49 -12z"/>
<path d="M6783 2204 c-6 -17 14 -36 32 -31 6 2 11 13 13 25 3 17 -2 22 -18 22
-11 0 -23 -7 -27 -16z"/>
<path d="M3532 5758 c-21 -21 -13 -55 19 -82 53 -45 109 -43 109 3 0 26 -77
91 -107 91 -5 0 -14 -5 -21 -12z"/>
<path d="M3279 5266 c27 -29 46 -33 54 -11 7 17 3 20 -43 30 l-35 7 24 -26z"/>
<path d="M3056 4904 c-21 -20 -20 -30 3 -53 28 -28 95 -45 121 -31 41 22 17
66 -49 89 -45 15 -57 14 -75 -5z"/>
<path d="M8952 4456 c1 -10 8 -17 13 -17 15 1 12 24 -3 29 -9 3 -13 -2 -10
-12z"/>
<path d="M9007 4074 c-15 -15 -7 -45 11 -42 9 2 17 12 17 22 0 20 -16 31 -28
20z"/>
<path d="M2840 3956 c0 -19 14 -28 34 -20 13 5 14 9 5 20 -15 18 -39 18 -39 0z"/>
<path d="M2992 3940 c-25 -21 -22 -40 7 -40 24 0 43 23 35 44 -8 20 -14 20
-42 -4z"/>
<path d="M8775 2764 c-25 -20 -28 -26 -15 -34 25 -17 55 -7 58 19 6 36 -10 42
-43 15z"/>
<path d="M5651 994 c-43 -54 -39 -133 9 -184 23 -25 36 -30 73 -30 75 0 90 30
66 141 -14 65 -46 99 -93 99 -25 0 -40 -7 -55 -26z"/>
<path d="M6058 789 c-38 -22 -16 -162 32 -211 54 -54 120 -26 136 58 17 90
-32 164 -108 164 -24 0 -51 -5 -60 -11z"/>
<path d="M6468 789 c-38 -22 -10 -180 39 -218 52 -42 116 -15 129 55 19 100
-27 174 -109 174 -23 0 -50 -5 -59 -11z"/>
</g>
</svg>
