<?xml version="1.0" standalone="no"?>
<!DOCTYPE svg PUBLIC "-//W3C//DTD SVG 20010904//EN"
 "http://www.w3.org/TR/2001/REC-SVG-20010904/DTD/svg10.dtd">
<svg version="1.0" xmlns="http://www.w3.org/2000/svg"
 width="1392.000000pt" height="868.000000pt" viewBox="0 0 1392.000000 868.000000"
 preserveAspectRatio="xMidYMid meet">

<g transform="translate(0.000000,868.000000) scale(0.100000,-0.100000)"
fill="#000000" stroke="none">
<path d="M3443 5963 c3 -2992 -2 -2750 63 -3073 225 -1129 1039 -2068 2159
-2493 361 -136 825 -227 1165 -227 80 0 102 -3 106 -15 7 -18 25 -20 22 -3 -2
10 35 15 142 20 662 33 1285 235 1814 590 223 150 373 275 576 485 459 471
759 1049 879 1688 58 306 54 122 58 3053 l4 2692 -3496 0 -3495 0 3 -2717z
m6934 -30 l-2 -2708 -23 -140 c-61 -375 -169 -717 -315 -995 -28 -52 -57 -108
-65 -125 -76 -146 -269 -422 -396 -565 -84 -94 -241 -251 -326 -324 -91 -79
-306 -244 -387 -295 -542 -347 -1123 -532 -1775 -567 l-128 -6 0 1234 0 1235
-152 209 c-83 115 -191 263 -239 329 -49 66 -98 134 -109 150 -24 34 -128 178
-276 381 -55 77 -149 207 -209 289 -59 83 -125 173 -145 200 -21 28 -76 104
-124 170 -47 66 -112 156 -144 200 -33 44 -108 148 -167 230 -60 83 -147 203
-194 268 -47 65 -90 126 -96 134 -5 9 -16 23 -23 32 -14 16 -41 53 -260 356
l-122 170 1127 5 1128 5 3 1418 2 1417 1710 0 1710 0 -3 -2707z m-6834 -1185
c29 -40 108 -147 175 -238 68 -91 150 -203 185 -250 34 -47 145 -197 246 -335
102 -137 230 -312 285 -387 56 -75 167 -226 248 -335 80 -109 147 -201 148
-205 0 -4 13 -20 28 -36 15 -16 54 -67 87 -113 33 -46 111 -154 174 -239 201
-273 283 -384 328 -445 24 -33 88 -119 141 -191 53 -72 201 -272 327 -443 298
-405 437 -593 528 -716 390 -526 440 -596 434 -602 -3 -2 -79 0 -168 6 -481
34 -895 141 -1319 344 -185 88 -436 242 -590 361 -159 123 -410 354 -410 377
0 5 -4 7 -10 4 -5 -3 -10 -3 -10 2 0 7 -40 54 -104 123 -48 51 -181 228 -243
322 -322 495 -496 1015 -533 1593 -10 157 -15 1475 -5 1475 2 0 29 -33 58 -72z"/>
<path d="M7208 8392 c-3 -11 -1 -25 5 -31 6 -6 13 -49 16 -96 6 -90 8 -86 -36
-68 -16 6 -18 -54 -3 -92 9 -22 7 -26 -8 -23 -9 1 -19 0 -21 -2 -7 -9 19 -78
35 -90 19 -17 18 -27 -6 -33 -11 -3 -20 -10 -20 -15 0 -5 29 -41 65 -80 l65
-70 -31 -7 -31 -7 25 -25 c13 -14 49 -34 78 -44 30 -10 48 -18 42 -19 -7 0
-13 -4 -13 -8 0 -11 74 -52 94 -52 13 0 15 -4 6 -19 -12 -23 -13 -90 -2 -107
7 -12 75 -34 105 -34 10 0 28 11 41 25 19 21 28 24 47 16 36 -13 57 -41 68
-90 l9 -43 -21 20 c-48 43 -179 53 -317 25 -99 -20 -111 -27 -69 -42 l34 -12
-44 -24 c-68 -39 -120 -84 -118 -103 0 -10 -18 -43 -42 -74 -23 -32 -40 -61
-37 -67 4 -5 -2 -24 -13 -43 -17 -29 -32 -77 -55 -180 -8 -34 19 -45 60 -23
16 8 43 15 59 15 17 0 47 4 68 9 34 8 50 0 27 -14 -5 -3 -10 -13 -10 -21 0
-18 40 -18 85 0 34 15 35 15 35 -10 0 -13 2 -24 5 -24 2 0 29 16 60 35 39 25
55 31 55 21 0 -36 26 -24 91 40 l68 68 11 -30 12 -29 24 29 c14 15 28 41 31
57 3 16 9 29 14 29 7 0 17 30 46 129 2 8 25 -48 52 -125 118 -341 176 -437
344 -568 77 -60 194 -126 224 -126 26 0 20 -17 -14 -40 -35 -24 -39 -25 -207
-22 -94 2 -175 7 -180 12 -4 5 -1 19 8 31 9 14 16 43 16 71 0 59 -29 84 -87
75 -49 -8 -62 -24 -69 -83 -6 -47 -4 -52 22 -73 24 -19 26 -24 13 -35 -8 -8
-31 -17 -52 -20 -37 -7 -37 -6 -31 20 4 14 1 51 -5 83 -7 31 -17 76 -22 101
-14 60 -59 161 -70 154 -5 -3 -9 -16 -9 -30 0 -31 -6 -30 -36 5 -14 17 -47 49
-75 72 -41 34 -53 40 -61 28 -7 -11 -11 -11 -15 -1 -2 6 -9 12 -14 12 -4 0
-33 12 -64 26 -30 14 -61 24 -69 21 -7 -3 -35 5 -62 19 -34 17 -63 24 -103 23
-105 -2 -132 -24 -93 -74 11 -14 23 -42 27 -62 4 -21 13 -50 22 -66 l15 -29
-31 7 c-27 6 -31 4 -31 -14 0 -12 11 -39 25 -61 l25 -40 -25 0 c-22 0 -24 -2
-15 -20 6 -11 27 -35 47 -55 35 -34 36 -36 15 -42 -12 -3 -22 -9 -22 -14 0
-11 114 -96 140 -104 26 -8 26 -25 0 -32 -11 -3 -20 -9 -20 -14 0 -12 49 -35
93 -43 21 -4 53 -16 73 -28 l35 -21 -38 -25 c-21 -14 -56 -40 -78 -58 -52 -42
-111 -53 -149 -29 -32 21 -98 16 -127 -11 -28 -25 -25 -79 7 -111 22 -22 31
-24 65 -19 21 3 39 4 39 1 0 -2 -14 -32 -32 -66 -22 -42 -33 -79 -36 -120 -4
-56 -7 -62 -41 -83 -46 -30 -77 -64 -90 -99 -15 -39 -14 -70 2 -60 6 4 3 -6
-7 -22 -34 -52 -46 -79 -46 -107 0 -32 0 -31 34 -18 l25 9 -5 -77 c-3 -42 -1
-90 3 -106 8 -27 10 -28 26 -11 10 9 19 16 20 14 2 -2 8 -31 15 -63 6 -32 14
-61 17 -64 3 -3 13 2 23 11 18 16 19 15 30 -21 7 -21 21 -47 32 -57 19 -17 20
-17 28 5 8 22 9 22 20 -6 11 -25 161 -174 175 -174 3 0 7 26 9 58 3 42 13 71
36 108 18 28 32 59 32 68 0 9 6 16 14 16 9 0 18 22 25 68 19 106 21 113 31
107 19 -12 9 105 -16 188 -5 15 -2 16 20 5 14 -6 29 -9 32 -5 17 16 -117 197
-145 197 -4 0 -13 11 -20 24 -17 31 -89 66 -136 66 -37 0 -37 1 -31 32 11 55
55 143 67 131 7 -7 6 -18 -2 -36 -15 -33 -4 -92 22 -118 41 -41 139 -7 139 48
0 38 -30 94 -55 103 -14 5 -31 21 -37 35 -11 25 -9 29 37 68 51 45 121 87 143
87 8 0 -2 -18 -22 -42 -37 -43 -56 -91 -56 -142 0 -21 4 -27 15 -22 8 3 15 4
15 3 0 -1 -7 -24 -15 -51 -9 -29 -13 -64 -9 -83 6 -33 7 -33 30 -18 13 8 25
15 27 15 3 0 10 -28 17 -62 6 -35 20 -78 29 -97 l18 -34 15 22 16 22 10 -31
c6 -17 21 -45 33 -62 21 -29 23 -30 36 -13 12 17 15 16 49 -23 43 -50 64 -54
64 -12 l0 30 74 -60 c40 -33 76 -66 80 -75 10 -28 34 -15 67 37 28 43 34 61
33 108 0 30 -3 69 -7 85 -3 17 -4 24 -1 17 10 -21 24 -3 19 26 -15 95 -15 142
-1 142 12 0 9 13 -11 63 -14 34 -34 77 -46 96 l-21 34 32 -6 c18 -4 32 -2 32
3 0 18 -103 106 -163 139 -34 18 -64 37 -67 41 -12 19 -99 32 -131 21 -42 -15
-49 -14 -42 4 22 58 386 129 500 99 l22 -6 -29 -57 c-27 -54 -60 -182 -60
-233 0 -95 82 -277 184 -411 38 -49 44 -119 22 -236 -29 -152 -18 -340 28
-470 18 -50 20 -129 6 -215 -11 -68 -26 -455 -40 -1011 -9 -373 -18 -491 -41
-562 -16 -51 -66 -91 -189 -153 -63 -32 -156 -85 -206 -118 -98 -64 -143 -84
-307 -131 -59 -17 -124 -42 -145 -55 -74 -47 -194 -195 -232 -286 -11 -27 -11
-34 2 -47 14 -14 18 -13 35 4 10 10 52 41 93 68 60 40 96 55 194 81 67 18 130
35 141 39 44 15 -53 -58 -115 -86 -162 -75 -194 -95 -259 -158 -60 -58 -70
-75 -91 -139 -49 -155 -22 -200 47 -78 23 41 55 83 70 94 l28 20 2 -108 c0
-59 7 -134 13 -166 13 -62 67 -204 78 -204 28 1 34 21 30 91 -7 95 5 152 55
269 22 52 43 119 46 149 6 55 6 55 61 82 30 16 59 28 64 29 5 0 6 -16 3 -35
-13 -81 24 -223 83 -314 21 -33 47 -82 57 -110 12 -35 23 -51 35 -51 22 0 23
41 7 187 -10 92 -9 107 19 250 17 83 38 165 47 183 9 17 37 44 61 58 50 30
262 174 282 192 6 6 12 9 12 7 0 -2 5 -29 10 -60 9 -45 8 -68 -5 -119 -9 -35
-20 -67 -25 -73 -14 -18 -40 -152 -40 -208 0 -76 18 -161 46 -223 26 -57 32
-152 14 -229 -11 -46 -9 -50 19 -36 51 28 99 172 111 333 10 142 16 160 89
273 l51 80 0 138 c0 136 8 177 34 177 19 0 43 -30 52 -63 3 -16 1 -61 -6 -102
-15 -87 -7 -119 50 -194 21 -29 55 -94 76 -144 33 -81 38 -104 42 -197 4 -95
11 -119 33 -120 10 0 67 132 78 181 17 76 25 279 12 325 -6 23 -26 61 -45 85
-34 46 -52 96 -38 114 12 18 64 55 76 55 7 0 21 -6 32 -14 16 -12 20 -31 24
-108 5 -83 10 -101 44 -168 36 -70 38 -79 33 -140 -3 -36 -9 -73 -12 -82 -12
-30 24 -21 56 13 51 55 64 114 64 301 0 162 1 167 24 187 22 19 25 19 60 5
128 -56 190 -65 307 -43 79 15 106 32 142 93 28 46 65 159 56 169 -2 2 -37 -7
-76 -21 -85 -28 -122 -26 -250 12 -46 13 -110 27 -143 31 -140 14 -324 72
-309 96 3 5 -1 6 -9 3 -8 -3 -31 9 -51 26 -62 54 -67 88 -76 490 -5 195 -14
560 -20 810 -7 250 -9 478 -5 505 3 28 17 88 30 135 46 167 51 228 30 348 -36
208 -33 227 59 366 81 122 118 213 123 301 6 83 -15 193 -51 271 -31 68 -30
69 107 61 120 -8 305 -48 352 -77 47 -29 64 -78 23 -66 -95 27 -121 27 -175 0
-29 -14 -53 -32 -53 -40 0 -8 -5 -14 -11 -14 -7 0 -33 -17 -58 -37 -25 -21
-49 -37 -54 -35 -5 1 -5 -2 -2 -8 4 -7 -2 -21 -13 -33 -10 -12 -28 -35 -38
-51 l-18 -29 24 8 c14 4 30 10 36 12 7 2 4 -18 -8 -52 -27 -80 -34 -145 -17
-145 10 0 15 -17 16 -62 1 -34 6 -64 11 -67 5 -3 13 -40 17 -81 9 -94 15 -109
61 -159 42 -47 61 -51 74 -17 5 13 32 48 59 77 28 30 51 57 51 61 0 4 5 8 10
8 6 0 10 -9 10 -19 0 -50 42 -31 70 32 l18 39 15 -23 16 -23 20 45 c12 24 21
55 21 68 0 23 1 24 20 6 11 -10 23 -15 26 -12 11 10 23 89 24 146 0 43 3 52
15 47 8 -3 22 -9 30 -12 24 -10 19 56 -9 109 -17 32 -20 44 -10 40 31 -12 4
85 -38 132 -28 33 -29 35 -9 35 67 0 210 -124 196 -170 -4 -11 -15 -20 -26
-20 -11 0 -34 -13 -50 -29 -22 -23 -29 -39 -29 -69 0 -48 16 -63 76 -72 45 -7
45 -7 70 36 17 28 24 54 22 76 -2 24 1 33 13 36 12 2 19 -10 28 -45 7 -26 14
-56 17 -65 4 -14 0 -18 -18 -18 -30 0 -88 -29 -125 -63 -15 -14 -48 -43 -71
-63 -45 -39 -102 -114 -102 -133 0 -7 10 -9 25 -5 14 3 25 4 25 2 0 -3 -9 -40
-20 -83 -24 -93 -25 -116 -6 -109 10 4 14 -14 18 -82 3 -55 9 -89 16 -92 7 -2
12 -11 12 -20 0 -10 14 -46 31 -81 24 -50 30 -73 27 -112 -1 -27 -1 -49 2 -49
16 0 168 126 185 153 15 25 21 28 23 14 7 -33 32 -17 65 42 25 43 25 43 38 20
12 -24 12 -24 30 16 10 22 19 52 19 68 0 30 11 35 30 12 22 -27 32 -1 38 94 3
65 8 91 18 91 7 0 16 -4 19 -10 13 -21 25 -8 25 28 0 21 -11 55 -25 80 -19 34
-21 42 -9 42 12 0 14 7 9 33 -12 57 -46 103 -100 138 -50 32 -53 36 -59 87 -5
45 -18 87 -51 165 -6 14 -2 17 22 17 46 0 73 25 73 69 0 50 -17 70 -69 82 -51
11 -77 5 -91 -21 -13 -25 -46 -14 -92 31 -18 17 -53 45 -78 62 l-44 31 31 8
c38 10 63 36 44 47 -8 5 3 10 28 14 46 6 113 36 118 53 2 7 -8 15 -23 18 -26
7 -25 8 45 74 73 70 86 92 51 92 -11 0 -20 2 -20 5 0 2 18 28 40 57 l40 53
-30 3 c-29 3 -29 4 -16 30 7 15 17 42 21 60 7 35 -1 40 -36 22 -23 -13 -23
-12 -5 87 7 40 18 79 25 86 6 8 9 22 5 31 -5 13 -21 16 -79 16 -67 0 -77 -3
-126 -35 -72 -49 -73 -50 -65 -37 4 7 5 12 2 12 -9 0 -81 -44 -117 -71 -27
-21 -39 -25 -47 -17 -13 13 -13 14 -89 -90 l-46 -64 -12 29 -13 28 -10 -26
c-22 -56 -31 -108 -34 -206 -2 -86 -6 -102 -18 -98 -8 2 -33 7 -55 11 -22 4
-48 11 -59 16 -17 9 -15 12 16 39 32 25 35 33 33 74 -2 57 -21 77 -73 79 -59
1 -82 -24 -82 -90 0 -29 5 -56 10 -59 8 -5 7 -11 -1 -21 -9 -11 -30 -13 -98
-9 -47 4 -117 2 -156 -3 -70 -9 -70 -9 -113 24 l-44 33 35 14 c44 19 215 132
291 194 33 26 79 73 102 103 63 80 136 237 180 382 21 70 41 125 46 122 4 -3
8 -12 8 -21 0 -25 40 -82 53 -77 8 3 17 -12 25 -41 19 -70 72 -114 72 -59 0
25 5 22 70 -40 39 -36 74 -66 79 -66 5 0 11 9 14 21 5 19 7 19 60 -10 64 -37
67 -37 67 -10 0 16 4 19 18 13 23 -10 102 -18 102 -9 0 3 -4 14 -10 24 -9 17
-5 18 58 14 37 -3 82 -12 100 -19 25 -10 62 -11 62 0 0 1 -9 35 -20 76 -25 92
-50 150 -64 150 -6 0 -6 4 1 11 8 8 2 24 -22 58 -19 26 -43 55 -55 66 -15 14
-17 20 -8 26 15 9 7 17 -90 82 -63 41 -63 42 -38 51 14 6 26 13 26 16 0 14
-119 34 -210 35 -125 3 -174 -9 -205 -49 l-25 -31 0 38 c0 21 9 56 20 77 18
35 25 40 54 40 25 0 35 -6 44 -24 23 -52 138 -38 164 19 9 21 8 32 -5 60 -16
33 -16 34 6 41 41 12 89 46 77 54 -14 9 -9 12 47 30 23 7 54 26 69 41 l28 29
-25 0 c-14 0 -29 3 -32 6 -4 4 23 38 58 77 70 75 80 97 40 89 -32 -6 -31 -1 5
50 17 22 30 52 30 65 0 21 -2 22 -22 12 -19 -10 -20 -9 -14 7 13 32 19 114 10
114 -5 0 -19 -7 -30 -14 -21 -15 -21 -14 -16 62 2 42 8 85 13 94 5 9 9 28 9
41 0 23 -3 24 -47 20 -94 -8 -113 -14 -160 -52 -27 -21 -53 -36 -58 -34 -6 2
-41 -21 -77 -52 -41 -34 -68 -50 -71 -42 -7 16 -46 -31 -89 -105 -18 -32 -36
-58 -39 -58 -4 0 -10 11 -13 25 -20 80 -50 -81 -41 -215 4 -52 14 -108 22
-125 l16 -30 -25 23 c-16 15 -25 33 -25 54 0 39 -53 88 -96 88 -33 0 -77 -40
-77 -71 0 -18 -2 -19 -15 -9 -13 11 -15 8 -15 -20 0 -17 -3 -30 -7 -28 -5 2
-30 15 -58 29 -70 37 -95 44 -95 26 0 -11 -13 -12 -67 -5 -44 5 -69 4 -71 -2
-2 -6 -32 -10 -67 -10 -56 0 -68 -4 -106 -32 -54 -42 -57 -52 -24 -80 15 -13
38 -42 51 -65 14 -23 31 -47 39 -53 21 -17 19 -30 -5 -30 -32 0 -24 -38 15
-73 35 -31 35 -31 13 -43 -21 -11 -21 -13 27 -43 27 -17 53 -31 59 -31 5 0 1
-9 -8 -19 -17 -19 -17 -20 6 -34 12 -8 49 -21 81 -28 55 -12 68 -21 47 -34
-18 -11 -11 -33 13 -39 22 -5 56 1 101 20 14 5 17 4 12 -4 -9 -15 51 -16 88
-3 l25 10 -18 -52 c-34 -98 -156 -362 -185 -400 -16 -20 -35 -37 -42 -37 -18
0 -18 5 2 36 21 32 14 112 -12 131 -29 21 -87 16 -112 -10 -24 -26 -27 -45
-12 -99 6 -22 19 -39 30 -43 33 -10 24 -83 -14 -120 -44 -44 -169 -117 -267
-155 l-51 -21 -130 61 c-151 70 -222 114 -237 147 -19 42 -13 79 19 111 35 35
41 92 14 131 -15 21 -23 23 -70 19 -30 -3 -57 -7 -60 -10 -12 -13 -16 -118 -5
-132 8 -10 9 -21 3 -32 -8 -14 -12 -11 -30 17 -11 19 -32 61 -47 94 -31 69
-155 385 -155 395 0 4 15 2 34 -4 19 -6 33 -13 31 -16 -2 -3 17 -3 41 -1 24 1
44 7 44 11 0 5 15 4 32 -1 45 -12 118 -11 118 2 0 6 -8 18 -17 27 -16 16 -15
17 3 20 55 8 161 34 174 42 12 7 12 12 -4 28 -17 20 -17 20 11 26 16 4 46 17
68 30 36 22 37 24 17 30 -28 9 -28 20 2 34 13 6 33 24 45 40 l21 30 -33 6 -32
6 32 30 c18 17 44 46 59 65 14 19 32 35 40 35 23 0 29 42 8 58 -63 47 -88 52
-259 55 -122 1 -165 5 -165 14 0 13 -111 -22 -173 -54 l-29 -15 7 31 c8 37 0
39 -32 9 -13 -12 -23 -16 -23 -10 0 6 5 14 10 17 13 8 13 51 0 75 -28 51 -132
40 -147 -17 l-7 -28 -6 30 c-3 17 -2 46 3 65 6 23 5 63 -3 116 -14 100 -24
118 -41 81 l-12 -27 -38 62 c-52 85 -79 117 -86 100 -3 -9 -20 1 -53 30 -68
62 -94 80 -98 68 -2 -5 -23 6 -46 24 -51 43 -77 53 -154 62 -54 6 -60 4 -64
-14z m702 -697 c-12 -13 -27 -22 -33 -18 -6 3 -7 1 -3 -5 5 -9 -28 -79 -44
-92 -4 -3 -12 -14 -17 -25 -10 -17 -12 -14 -23 23 -14 52 -9 70 30 107 25 24
34 27 48 18 14 -8 23 -7 37 3 29 21 31 17 5 -11z m1456 -5 c46 0 74 -71 55
-139 -5 -21 -13 -11 -54 69 -26 52 -41 88 -35 82 7 -7 22 -12 34 -12z m-1722
-66 c10 -25 0 -28 -35 -14 -28 12 -30 15 -13 21 30 12 41 10 48 -7z m2004 -11
c21 -5 21 -6 5 -19 -21 -15 -59 -18 -67 -5 -11 17 6 42 23 35 9 -3 26 -9 39
-11z m-985 -1411 c17 -19 17 -20 -8 -36 -24 -16 -27 -16 -66 7 l-40 24 32 21
c35 22 51 19 82 -16z m-219 -144 l34 -22 -24 -31 c-29 -39 -104 -196 -105
-221 0 -17 -1 -17 -9 1 -13 30 -11 104 4 160 13 50 52 135 61 135 3 0 20 -10
39 -22z m395 -9 c60 -81 85 -181 64 -259 -5 -19 -9 -12 -19 39 -13 63 -71 167
-115 207 -20 18 -20 18 3 31 34 18 42 16 67 -18z m-175 -213 c44 -90 49 -157
15 -200 -18 -23 -28 -27 -62 -24 -98 7 -114 138 -33 267 15 23 30 39 35 37 4
-3 25 -39 45 -80z"/>
</g>
</svg>
