<?xml version="1.0" standalone="no"?>
<!DOCTYPE svg PUBLIC "-//W3C//DTD SVG 20010904//EN"
 "http://www.w3.org/TR/2001/REC-SVG-20010904/DTD/svg10.dtd">
<svg version="1.0" xmlns="http://www.w3.org/2000/svg"
 width="1280.000000pt" height="235.000000pt" viewBox="0 0 1280.000000 235.000000"
 preserveAspectRatio="xMidYMid meet">
<metadata>
Created by potrace 1.16, written by Peter Selinger 2001-2019
</metadata>
<g transform="translate(0.000000,235.000000) scale(0.100000,-0.100000)"
fill="#000000" stroke="none">
<path d="M830 2339 c-85 -14 -240 -71 -322 -118 -268 -153 -453 -428 -498
-740 -17 -113 -8 -313 19 -413 103 -393 389 -669 776 -749 112 -23 319 -25
419 -4 38 8 71 13 73 11 2 -2 29 -68 59 -147 31 -79 63 -152 72 -161 13 -15
34 -18 143 -18 135 0 159 8 159 51 0 10 -34 105 -75 211 -62 160 -72 194 -60
201 8 4 48 34 88 66 114 93 218 231 278 371 82 190 106 383 74 593 -64 422
-375 752 -790 838 -98 20 -314 24 -415 8z m405 -303 c234 -74 399 -255 466
-511 15 -60 20 -111 20 -200 0 -138 -21 -237 -75 -350 -34 -71 -103 -171 -150
-214 l-25 -24 -11 29 c-62 168 -126 320 -141 335 -17 17 -35 19 -143 19 -132
0 -156 -8 -156 -50 0 -11 39 -119 86 -241 64 -167 82 -224 73 -230 -22 -13
-156 -22 -226 -14 -274 29 -499 212 -587 475 -124 372 27 781 346 934 51 24
118 49 148 55 30 6 64 13 75 15 52 13 223 -4 300 -28z"/>
<path d="M5426 2299 l-26 -20 0 -953 0 -953 23 -21 c21 -20 34 -22 130 -22 94
0 109 2 127 20 20 20 20 33 20 975 0 942 0 955 -20 975 -17 17 -33 20 -124 20
-89 0 -107 -3 -130 -21z"/>
<path d="M4232 1705 c-155 -34 -325 -153 -410 -288 -87 -139 -117 -262 -110
-451 6 -133 33 -235 88 -331 91 -158 252 -280 421 -320 82 -19 247 -19 319 0
82 22 174 72 230 126 l50 48 0 -55 c0 -45 4 -59 25 -79 22 -23 31 -25 127 -25
78 0 109 4 126 16 l22 15 0 643 c0 610 -1 644 -18 659 -15 14 -40 17 -130 17
-138 0 -152 -9 -152 -96 l0 -57 -53 51 c-129 122 -334 170 -535 127z m259
-275 c195 -37 329 -207 329 -419 0 -221 -133 -391 -337 -431 -115 -23 -248 19
-337 104 -210 204 -164 578 87 708 83 43 167 55 258 38z"/>
<path d="M6416 1703 c-251 -53 -428 -219 -508 -473 -20 -65 -23 -96 -23 -225
0 -129 3 -160 23 -225 70 -222 219 -379 428 -449 202 -67 475 -36 637 73 83
55 87 82 24 163 -55 72 -79 94 -105 96 -11 0 -62 -19 -114 -43 -91 -44 -95
-45 -193 -45 -87 0 -107 3 -157 27 -151 70 -238 218 -238 402 0 180 82 325
225 400 57 29 66 31 170 31 109 0 111 0 201 -43 123 -59 134 -57 201 37 75
105 71 130 -32 193 -141 86 -362 119 -539 81z"/>
<path d="M7665 1706 c-261 -50 -466 -234 -545 -491 -43 -142 -36 -330 20 -477
50 -133 166 -270 292 -344 106 -62 197 -87 335 -92 152 -6 240 12 361 73 302
153 447 503 349 841 -34 118 -88 207 -181 299 -89 88 -198 151 -311 180 -85
22 -236 27 -320 11z m273 -297 c199 -68 312 -312 247 -535 -70 -243 -335 -365
-561 -258 -159 75 -256 275 -224 461 45 270 286 419 538 332z"/>
<path d="M2254 1672 c-31 -21 -34 -54 -34 -424 0 -409 8 -515 45 -614 82 -219
264 -335 525 -337 168 -1 284 40 382 134 l48 45 0 -46 c0 -33 6 -56 21 -74 20
-25 23 -26 133 -26 97 0 115 3 129 18 15 17 17 77 17 659 0 607 -1 641 -18
656 -15 14 -40 17 -129 17 -99 0 -112 -2 -129 -21 -18 -20 -19 -46 -24 -438
l-5 -416 -26 -56 c-66 -139 -209 -210 -383 -187 -156 21 -251 121 -276 293 -5
39 -10 232 -10 431 0 337 -1 362 -18 377 -15 14 -40 17 -128 17 -60 0 -114 -4
-120 -8z"/>
<path d="M8982 1673 c-20 -8 -30 -32 -277 -677 -280 -734 -272 -666 -86 -666
98 0 122 3 140 17 15 12 77 166 194 481 l173 463 164 -438 c176 -471 191 -507
215 -517 9 -3 65 -6 125 -6 88 0 112 3 129 18 15 11 78 162 192 462 94 245
174 453 178 463 5 12 62 -132 176 -440 107 -290 178 -466 192 -480 20 -21 31
-23 137 -23 105 0 117 2 140 22 19 17 68 137 191 468 92 245 170 448 174 453
4 4 86 -200 181 -454 118 -310 181 -466 195 -475 14 -10 52 -14 133 -14 104 0
115 2 135 23 14 13 88 197 192 474 94 248 173 449 176 445 4 -4 81 -209 173
-457 109 -295 174 -456 187 -467 18 -15 41 -18 136 -18 125 0 153 8 153 45 0
22 -445 1207 -476 1266 -7 15 -21 29 -29 33 -9 3 -74 6 -145 6 -107 0 -131 -3
-148 -17 -14 -12 -76 -169 -180 -453 -87 -239 -161 -441 -163 -449 -3 -7 -80
189 -173 435 -92 247 -175 457 -183 467 -14 15 -35 17 -150 17 -74 0 -143 -4
-153 -10 -21 -11 -23 -17 -214 -533 l-143 -387 -163 442 c-90 244 -172 453
-183 466 -19 21 -28 22 -155 22 -110 0 -139 -3 -153 -16 -10 -9 -93 -218 -185
-465 -136 -365 -170 -446 -177 -427 -137 372 -333 877 -344 891 -14 15 -35 17
-152 16 -75 0 -142 -3 -149 -6z"/>
</g>
</svg>
